<svg xmlns="http://www.w3.org/2000/svg" viewBox="0 0 832.97 357.3"><defs><style>.cls-1{fill:#fff;}</style></defs><g id="Layer_2" data-name="Layer 2"><g id="Layer_1-2" data-name="Layer 1"><path class="cls-1" d="M317.63,183.49q-10.19-10.12-10.18-28.9V106.8H327.2v47.06q0,22.92,19,22.92,9.27,0,14.14-5.54t4.88-17.38V106.8h19.51v47.79q0,18.78-10.18,28.9T346.1,193.61Q327.82,193.61,317.63,183.49Z"/><path class="cls-1" d="M458.64,192.15l-16.46-23.78H424v23.78H404.26V106.8H441.2a47.46,47.46,0,0,1,19.7,3.78,29.34,29.34,0,0,1-.19,54.13l19.15,27.44Zm-5-65.42q-4.63-3.84-13.53-3.84H424v29.75h16.1q8.89,0,13.53-3.9t4.64-11Q458.28,130.57,453.64,126.73Z"/><path class="cls-1" d="M551.55,148.13H569.6v34.63a51.75,51.75,0,0,1-16.1,8.05,62.41,62.41,0,0,1-18.41,2.8,49.89,49.89,0,0,1-23.9-5.67,42.16,42.16,0,0,1-16.64-15.73,45.83,45.83,0,0,1,0-45.48A42,42,0,0,1,511.31,111a50.9,50.9,0,0,1,24.15-5.67,52.86,52.86,0,0,1,20.36,3.78,40.24,40.24,0,0,1,15.36,11l-12.68,11.7a29.33,29.33,0,0,0-22.07-9.63,30.19,30.19,0,0,0-14.51,3.41A24.55,24.55,0,0,0,512,135.2a28.46,28.46,0,0,0-3.53,14.27A28.13,28.13,0,0,0,512,163.61a25,25,0,0,0,9.82,9.7,29.06,29.06,0,0,0,14.33,3.47,32.09,32.09,0,0,0,15.36-3.65Z"/><path class="cls-1" d="M654,176.3v15.85H587.89V106.8h64.5v15.85H607.52v18.53h39.62v15.36H607.52V176.3Z"/><path class="cls-1" d="M748,106.8v85.35H731.77l-42.56-51.82v51.82H669.7V106.8H686l42.43,51.82V106.8Z"/><path class="cls-1" d="M785.9,122.89H758.59V106.8H833v16.09H805.66v69.26H785.9Z"/><path class="cls-1" d="M327.2,246.51v22.56h39.5v15.85H327.2V316H307.45V230.66H372v15.85Z"/><path class="cls-1" d="M394.81,307.36q-10.19-10.12-10.18-28.9v-47.8h19.75v47.07q0,22.92,19,22.92,9.27,0,14.15-5.55t4.87-17.37V230.66h19.51v47.8q0,18.78-10.18,28.9t-28.47,10.12Q405,317.48,394.81,307.36Z"/><path class="cls-1" d="M547.53,300.16V316H481.44V230.66h64.5v15.85H501.07v18.54H540.7v15.36H501.07v19.75Z"/><path class="cls-1" d="M563.26,230.66H583v69.26h42.8V316H563.26Z"/><path class="cls-1" d="M229.31,147.11l-65,95.72a43.3,43.3,0,1,1-71.62-48.69L176.34,69.57Z"/><path class="cls-1" d="M89.75,278.08l96.72,65.64a129,129,0,0,1-172.6-57l-1.06-2.16q-1.58-3.22-3-6.55c-.31-.74-.61-1.47-.91-2.23q-1.95-4.89-3.47-10c-.22-.7-.42-1.41-.62-2.11-.27-1-.54-2-.8-3-.2-.8-.4-1.59-.59-2.39-.43-1.8-.82-3.6-1.16-5.42A129.82,129.82,0,0,1,0,228.54a128.27,128.27,0,0,1,22.49-72.76l0,0,.73-1.09L128.81,0l30.68,44.9L69.71,178.61a71.07,71.07,0,0,0,17.53,97.75c.25.19.51.36.77.54Z"/><path class="cls-1" d="M257.71,228.43a128.55,128.55,0,0,1-46.13,98.79L150.77,286a70.69,70.69,0,0,0,36.53-27.54l57.94-85.37c.39.84.79,1.7,1.17,2.57s.83,1.83,1.21,2.75a126.54,126.54,0,0,1,6,17.85c.2.8.4,1.6.58,2.39.29,1.16.54,2.3.78,3.45.13.67.28,1.32.4,2A129.9,129.9,0,0,1,257.71,228.43Z"/></g></g></svg>